<svg width="18" height="18" viewBox="0 0 18 18" fill="none" xmlns="http://www.w3.org/2000/svg">
<path d="M17.64 9.20455C17.64 8.56636 17.5827 7.95273 17.4764 7.36364H9V10.8455H13.84C13.6327 11.97 13.0145 12.9232 12.0614 13.5614V15.8195H14.84C16.48 14.3045 17.64 11.9818 17.64 9.20455Z" fill="#4285F4"/>
<path d="M9.00001 18C11.43 18 13.4673 17.1945 14.84 15.8195L12.0614 13.5614C11.3236 14.0614 10.29 14.3455 9.00001 14.3455C6.65501 14.3455 4.67228 12.8145 3.96774 10.71H1.09729V13.0418C2.46138 15.9827 5.48137 18 9.00001 18Z" fill="#34A853"/>
<path d="M3.96772 10.71C3.78772 10.21 3.68136 9.67818 3.68136 9.12727C3.68136 8.57636 3.78772 8.04455 3.96772 7.54455V5.21364H1.09727C0.531818 6.50864 0.227264 7.89091 0.227264 9.32727C0.227264 10.7636 0.531818 12.1459 1.09727 13.4409L3.96772 10.71Z" fill="#FBBC05"/>
<path d="M9.00001 3.65455C10.4073 3.65455 11.64 4.13636 12.5873 5.03636L14.9064 2.71727C13.4636 1.38182 11.4264 0.590909 9.00001 0.590909C5.48137 0.590909 2.46138 2.60818 1.09729 5.54909L3.96774 7.88C4.67228 5.77545 6.65501 3.65455 9.00001 3.65455Z" fill="#EA4335"/>
</svg>
